# Blender v2.79 (sub 0) OBJ File: 'GlucoseMonster.blend'
# www.blender.org
mtllib GlucoseMonster.mtl
o Cube
v 0.358790 0.712327 -0.053262
v 0.221081 -1.498320 -0.097408
v 0.200656 0.179473 -0.110225
v 0.208259 -0.445107 -0.273803
v 0.215863 -1.069687 -0.206247
v 0.639753 0.161672 -0.138692
v 0.197422 0.445111 0.087725
v 0.358790 0.729623 0.096277
v 0.197422 0.445111 0.087725
v 0.672121 0.276000 0.087725
v 0.444022 -0.462607 -0.273803
v 0.369850 -1.049800 -0.206247
v 0.339978 -1.501012 -0.031776
v 0.553219 -1.503072 -0.097409
v 0.605200 -1.792919 -0.848623
v 0.625330 -1.924510 -1.097226
v 0.227687 -1.924407 -1.097226
v 0.180872 -2.052366 -0.924889
v 0.633915 -2.021130 -0.970481
v 0.645361 -2.115561 -1.143489
v 0.643930 -2.218578 -1.186927
v 0.629623 -2.314440 -1.060232
v 0.588130 -2.339548 -0.935347
v 0.229003 -2.340283 -0.935347
v 0.227572 -2.315001 -1.060232
v 0.227572 -2.216665 -1.186927
v 0.224711 -2.114906 -1.143489
v 0.193656 0.626375 -0.282838
v 0.418127 0.877924 -0.103559
v 0.504661 1.026962 -0.148827
v 0.554109 1.090835 -0.168228
v 0.576360 1.317941 -0.237207
v 0.544219 1.616016 -0.327743
v 0.440379 1.760323 -0.371574
v 0.373738 1.900018 -0.213344
v 0.179395 0.762554 -0.342738
v 0.194916 0.650917 0.085402
v 0.567756 -1.797014 -0.855034
v 0.226205 -1.769762 -0.886296
v 0.535910 1.900018 0.342957
v 0.576360 1.317941 0.198485
v 0.554109 1.090835 0.207849
v 0.672121 0.276000 0.272153
v 0.672121 0.276000 0.272153
v 0.588130 -2.339548 -0.772225
v 0.229003 -2.340283 -0.772225
v 0.588130 -2.339548 -0.077710
v 0.553219 -1.503072 -0.097409
v 0.588130 -2.339548 -0.077710
v 0.553219 -1.503072 0.557677
v 0.588130 -2.339548 0.577375
v 0.390453 -1.501012 0.401775
v 0.390453 -1.077345 0.514462
v 0.553219 -1.503072 1.057586
v 0.588130 -1.781408 1.077284
v 0.553219 -1.503072 0.557677
v 0.553219 -1.503072 1.057586
v 0.588130 -2.335204 0.820630
v 0.553219 -1.503072 0.557677
v 0.553219 -1.503072 1.057586
v 0.153037 -1.474585 0.948152
v 0.645361 -2.115561 -1.143489
v 0.228460 -2.336941 0.577375
v 0.228460 -2.332597 0.820630
v 0.588130 -2.243984 0.959633
v 0.228460 -2.241377 0.959633
v 0.588130 -2.091949 1.029134
v 0.228460 -2.089343 1.029134
v 0.588130 -1.987697 1.000899
v 0.228460 -1.985091 1.000899
v 0.588130 -1.933400 0.937913
v 0.228460 -1.930793 0.937913
v 0.390453 -0.461841 0.469425
v 0.390453 -0.112805 0.390611
v 0.100547 2.250746 -0.336705
v 0.104585 2.377681 -0.433609
v 0.117408 2.500078 -0.514680
v 0.087303 2.625482 -0.577655
v 0.042831 2.855422 -0.596961
v 0.246546 1.296213 -0.433256
v 0.437609 1.296213 -0.316418
v 0.352161 1.467107 -0.444218
v 0.470246 1.467107 -0.336452
v 0.349578 1.281211 -0.384447
v 0.481066 1.381660 -0.303501
v 0.411658 1.381660 -0.436264
v 0.299354 1.381660 -0.472754
v 0.285469 1.482109 -0.450455
v 0.430842 1.482109 -0.377222
v 0.078526 1.563059 -0.495909
v 0.019948 1.680214 -0.538468
v 0.018177 1.552774 -0.543966
v 0.108318 1.621636 -0.467524
v 0.060736 1.621636 -0.533015
v 0.073887 1.690498 -0.492539
v 3.897099 0.134867 0.171120
v 1.664145 0.276000 0.272153
v 1.615134 -0.004380 0.246228
v 1.631776 -0.012818 0.064873
v 1.664145 0.276000 0.087725
v 1.419015 -0.004380 0.245052
v 1.455033 0.276000 0.272153
v 1.455033 0.276000 0.087725
v 1.422665 0.004773 0.062803
v 3.444233 0.276000 0.087725
v 3.436630 0.020291 0.055126
v 3.382284 0.015861 0.269476
v 3.444233 0.276000 0.272153
v 0.000000 0.845118 -0.487351
v -0.358790 0.712327 -0.053262
v 0.000000 -1.504472 -0.240203
v -0.221081 -1.498320 -0.097408
v 0.000000 -1.074784 -0.301292
v 0.000000 -0.448665 -0.358195
v 0.000000 0.177453 -0.210618
v -0.200656 0.179473 -0.110225
v -0.208259 -0.445107 -0.273803
v -0.215863 -1.069687 -0.206247
v -0.639753 0.161672 -0.138692
v 0.000000 0.443745 -0.122029
v -0.197422 0.445111 0.087725
v -0.358790 0.729623 0.096277
v -0.197422 0.445111 0.087725
v -0.672121 0.276000 0.087725
v -0.444022 -0.462607 -0.273803
v -0.369850 -1.049800 -0.206247
v -0.339978 -1.501012 -0.031776
v -0.553219 -1.503072 -0.097409
v -0.605200 -1.792919 -0.848623
v -0.625330 -1.924510 -1.097226
v -0.227687 -1.924407 -1.097226
v -0.180872 -2.052366 -0.924889
v 0.000000 -2.084084 -0.881904
v -0.633915 -2.021130 -0.970481
v -0.645361 -2.115561 -1.143489
v -0.643930 -2.218578 -1.186927
v -0.629623 -2.314440 -1.060232
v -0.588130 -2.339548 -0.935347
v -0.229003 -2.340283 -0.935347
v -0.227572 -2.315001 -1.060232
v -0.227572 -2.216665 -1.186927
v -0.224711 -2.114906 -1.143489
v 0.000000 -1.769762 -0.886296
v 0.000000 0.602793 -0.390234
v -0.193656 0.626375 -0.282838
v -0.418127 0.877924 -0.103559
v -0.504661 1.026962 -0.148827
v -0.554109 1.090835 -0.168228
v -0.576360 1.317941 -0.237207
v -0.544219 1.616016 -0.327743
v -0.440379 1.760323 -0.371574
v -0.373738 1.900018 -0.213344
v 0.000000 2.049087 -0.389778
v -0.179395 0.762554 -0.342738
v -0.194916 0.650917 0.085402
v 0.000000 1.032904 -0.564682
v 0.000000 1.307850 -0.586192
v 0.000000 1.541954 -0.546040
v 0.000000 1.735489 -0.491177
v 0.000000 0.505043 -0.294093
v 0.000000 2.256256 -0.524889
v 0.000000 2.355268 -0.074775
v 0.000000 2.355268 0.162061
v 0.000000 2.284063 0.368555
v 0.000000 2.170135 0.532327
v 0.000000 1.967201 0.649815
v 0.000000 1.621857 0.721536
v 0.000000 1.326356 0.676410
v 0.000000 1.066458 0.431056
v 0.000000 0.795879 0.329954
v 0.000000 -1.925824 -1.095621
v -0.567756 -1.797014 -0.855034
v -0.226205 -1.769762 -0.886296
v -0.535910 1.900018 0.342957
v 0.000000 2.284063 0.368555
v -0.576360 1.317941 0.198485
v -0.554109 1.090835 0.207849
v 0.000000 0.676725 0.236441
v 0.000000 0.448976 0.240966
v 0.000000 0.123606 0.427904
v 0.000000 -0.098451 0.521806
v 0.000000 -0.501906 0.568871
v 0.000000 -1.089886 0.574657
v 0.000000 -1.471449 0.546135
v -0.672121 0.276000 0.272153
v -0.672121 0.276000 0.272153
v -0.588130 -2.339548 -0.772225
v -0.229003 -2.340283 -0.772225
v -0.588130 -2.339548 -0.077710
v -0.553219 -1.503072 -0.097409
v -0.588130 -2.339548 -0.077710
v -0.553219 -1.503072 0.557677
v -0.588130 -2.339548 0.577375
v -0.390453 -1.501012 0.401775
v -0.390453 -1.077345 0.514462
v -0.553219 -1.503072 1.057586
v -0.588130 -1.781408 1.077284
v 0.000000 -1.471449 0.924003
v 0.000000 -1.471449 0.546135
v -0.553219 -1.503072 0.557677
v -0.553219 -1.503072 1.057586
v -0.588130 -2.335204 0.820630
v 0.000000 -1.471449 0.546135
v -0.553219 -1.503072 0.557677
v -0.553219 -1.503072 1.057586
v -0.153037 -1.474585 0.948152
v 0.000000 -1.706810 1.419004
v -0.645361 -2.115561 -1.143489
v 0.000000 -1.878586 1.169608
v -0.228460 -2.336941 0.577375
v -0.228460 -2.332597 0.820630
v -0.588130 -2.243984 0.959633
v -0.228460 -2.241377 0.959633
v -0.588130 -2.091949 1.029134
v -0.228460 -2.089343 1.029134
v -0.588130 -1.987697 1.000899
v -0.228460 -1.985091 1.000899
v -0.588130 -1.933400 0.937913
v -0.228460 -1.930793 0.937913
v -0.390453 -0.461841 0.469425
v -0.390453 -0.112805 0.390611
v 0.000000 2.616551 -0.659999
v 0.000000 3.080431 -0.664503
v 0.000000 2.913795 -0.583142
v 0.000000 2.666092 -0.465171
v 0.000000 2.572265 -0.445031
v 0.000000 2.517533 -0.348598
v 0.000000 2.460194 -0.228708
v -0.100547 2.250746 -0.336705
v -0.104585 2.377681 -0.433609
v -0.117408 2.500078 -0.514680
v -0.087303 2.625482 -0.577655
v -0.042831 2.855422 -0.596961
v -0.246546 1.296213 -0.433256
v -0.437609 1.296213 -0.316418
v -0.352161 1.467107 -0.444218
v -0.470246 1.467107 -0.336452
v -0.349578 1.281211 -0.384447
v -0.481066 1.381660 -0.303501
v -0.411658 1.381660 -0.436264
v -0.299354 1.381660 -0.472754
v -0.285469 1.482109 -0.450455
v -0.430842 1.482109 -0.377222
v -0.078526 1.563059 -0.495909
v -0.019948 1.680214 -0.538468
v -0.018177 1.552774 -0.543966
v -0.108318 1.621636 -0.467524
v -0.060736 1.621636 -0.533015
v 0.000000 1.667996 -0.558031
v -0.073887 1.690498 -0.492539
v -3.897099 0.134867 0.171120
v -1.664145 0.276000 0.272153
v -1.615134 -0.004380 0.246228
v -1.631776 -0.012818 0.064873
v -1.664145 0.276000 0.087725
v -1.419015 -0.004380 0.245052
v -1.455033 0.276000 0.272153
v -1.455033 0.276000 0.087725
v -1.422665 0.004773 0.062803
v -3.444233 0.276000 0.087725
v -3.436630 0.020291 0.055126
v -3.382284 0.015861 0.269476
v -3.444233 0.276000 0.272153
vn 0.4746 -0.1682 -0.8640
vn 0.5626 0.3947 -0.7264
vn 0.3988 0.2237 -0.8893
vn 0.3896 -0.0888 -0.9167
vn 0.4961 -0.3167 -0.8085
vn 0.4034 -0.9122 0.0727
vn 0.1294 0.7343 -0.6664
vn -0.0286 0.2366 -0.9712
vn 0.0007 -0.1108 -0.9938
vn 0.2408 -0.3036 -0.9219
vn 0.6573 -0.3024 -0.6903
vn 0.8266 -0.3022 -0.4748
vn 0.5832 -0.3888 -0.7133
vn 0.5495 -0.1717 -0.8177
vn 0.4543 -0.0567 -0.8890
vn 0.3106 0.1262 -0.9421
vn 0.3621 0.5028 -0.7849
vn 0.7818 -0.3136 -0.5389
vn 0.5317 -0.8363 -0.1333
vn 0.7034 0.6961 -0.1438
vn -0.0029 -0.7995 -0.6007
vn 0.0012 0.3906 -0.9206
vn -0.0013 -0.7937 -0.6083
vn -0.0521 0.9244 -0.3779
vn 0.0017 -0.9803 -0.1975
vn 0.0002 -0.8033 -0.5956
vn -0.0930 0.9277 -0.3617
vn -0.0012 0.8848 -0.4661
vn 0.1271 0.9412 -0.3129
vn 0.5522 0.7457 0.3728
vn 0.7959 0.5652 -0.2169
vn 0.9965 0.0830 -0.0138
vn 0.9952 -0.0975 0.0000
vn 0.8399 -0.5423 -0.0193
vn 0.9015 -0.4298 -0.0513
vn 0.3953 -0.4005 0.8266
vn 0.4874 -0.3987 0.7768
vn 0.6250 -0.1372 0.7685
vn 0.5031 0.2819 0.8169
vn 0.3577 -0.6500 0.6704
vn 0.2787 0.9483 0.1521
vn 0.6135 0.0160 0.7895
vn 0.0672 0.8049 -0.5896
vn 0.0000 0.8017 -0.5977
vn 0.0984 0.9322 -0.3483
vn 0.9954 -0.0431 0.0853
vn 0.0020 -1.0000 0.0000
vn 0.9833 -0.1270 0.1306
vn -0.9887 -0.0694 -0.1327
vn -0.9863 -0.1645 -0.0095
vn -0.1220 -0.4808 -0.8683
vn 0.9862 0.0379 0.1613
vn 0.9993 0.0152 0.0329
vn 0.0000 0.0000 1.0000
vn 0.9991 0.0417 0.0000
vn 0.0111 0.9999 -0.0005
vn 0.2464 -0.1674 0.9546
vn 0.9973 -0.0385 -0.0623
vn 0.9975 0.0613 -0.0342
vn 0.0573 0.9983 -0.0111
vn 0.0608 0.9980 -0.0153
vn -0.0518 0.9022 0.4281
vn 0.4268 -0.3846 0.8185
vn -0.0072 -0.9998 0.0179
vn -0.0061 -0.8360 0.5486
vn -0.0030 -0.4158 0.9095
vn 0.0019 0.2614 0.9652
vn 0.0055 0.7574 0.6529
vn 1.0000 0.0000 0.0000
vn 0.1355 -0.8304 0.5404
vn -1.0000 0.0000 0.0000
vn 0.5187 -0.5676 0.6394
vn 0.9980 -0.0595 0.0214
vn 0.9613 -0.2040 0.1849
vn 0.8370 -0.5406 0.0845
vn 0.1375 0.3431 0.9292
vn 0.2749 0.1586 0.9483
vn 0.1974 0.0414 0.9794
vn 0.3080 0.3705 0.8762
vn 0.8268 0.5542 0.0962
vn 0.5902 -0.0830 -0.8030
vn 0.8166 -0.3709 -0.4422
vn 0.6419 -0.2551 -0.7231
vn 0.7744 0.0279 -0.6321
vn 0.6613 0.3252 0.6760
vn 0.8075 0.1794 0.5620
vn 0.6494 0.5619 0.5123
vn 0.8344 0.3833 0.3960
vn 0.8998 0.2463 0.3601
vn 0.5413 -0.6248 -0.5627
vn 0.8282 -0.3558 -0.4330
vn 0.2354 0.8522 -0.4673
vn 0.6694 -0.1920 -0.7177
vn 0.8815 0.1025 -0.4609
vn 0.5746 0.3304 -0.7488
vn 0.1424 0.2332 -0.9619
vn 0.6692 -0.0717 0.7396
vn 0.3066 0.1256 -0.9435
vn 0.2553 -0.5632 -0.7859
vn 0.2931 -0.5444 -0.7860
vn 0.6274 -0.2717 -0.7297
vn 0.2568 0.6801 -0.6866
vn 0.8026 -0.1256 -0.5831
vn 0.3995 0.6749 -0.6203
vn 0.7947 0.1876 -0.5773
vn 0.5579 0.3171 -0.7670
vn 0.3400 -0.0609 -0.9384
vn 0.1675 -0.0934 -0.9814
vn -0.0063 -0.0516 0.9987
vn 0.0000 1.0000 0.0000
vn 0.0085 0.0840 -0.9964
vn -0.0029 -0.0937 0.9956
vn -0.0433 -0.9991 -0.0044
vn -0.0133 -0.9272 -0.3743
vn 0.0737 0.1005 0.9922
vn 0.1601 0.5201 -0.8390
vn 0.2975 0.9547 0.0000
vn 0.0149 -0.9998 0.0128
vn -0.0036 0.1016 -0.9948
vn 0.2151 0.1172 -0.9695
vn 0.2321 -0.9719 0.0388
vn 0.2002 -0.0577 0.9781
vn -0.4746 -0.1682 -0.8640
vn -0.5626 0.3947 -0.7264
vn -0.3988 0.2237 -0.8893
vn -0.3896 -0.0888 -0.9167
vn -0.4961 -0.3167 -0.8085
vn -0.4034 -0.9122 0.0727
vn -0.1294 0.7343 -0.6664
vn 0.0286 0.2366 -0.9712
vn -0.0007 -0.1108 -0.9938
vn -0.2408 -0.3036 -0.9219
vn -0.6573 -0.3024 -0.6903
vn -0.8266 -0.3022 -0.4748
vn -0.5832 -0.3888 -0.7133
vn -0.5495 -0.1717 -0.8177
vn -0.4543 -0.0567 -0.8890
vn -0.3106 0.1262 -0.9421
vn -0.3621 0.5028 -0.7849
vn -0.7818 -0.3136 -0.5389
vn -0.5317 -0.8363 -0.1333
vn -0.7034 0.6961 -0.1438
vn 0.0029 -0.7995 -0.6007
vn -0.0012 0.3906 -0.9206
vn 0.0013 -0.7937 -0.6083
vn 0.0521 0.9244 -0.3779
vn -0.0017 -0.9803 -0.1975
vn -0.0002 -0.8033 -0.5956
vn 0.0930 0.9277 -0.3617
vn 0.0012 0.8848 -0.4661
vn -0.1271 0.9412 -0.3129
vn -0.5522 0.7457 0.3728
vn -0.7959 0.5652 -0.2169
vn -0.9965 0.0830 -0.0138
vn -0.9952 -0.0975 0.0000
vn -0.8399 -0.5423 -0.0193
vn -0.9015 -0.4298 -0.0513
vn -0.3953 -0.4005 0.8266
vn -0.4874 -0.3987 0.7768
vn -0.6250 -0.1372 0.7685
vn -0.5031 0.2819 0.8169
vn -0.3577 -0.6500 0.6704
vn -0.2787 0.9483 0.1521
vn -0.6135 0.0160 0.7895
vn -0.0672 0.8049 -0.5896
vn -0.0984 0.9322 -0.3483
vn -0.9954 -0.0431 0.0853
vn -0.0020 -1.0000 0.0000
vn -0.9833 -0.1270 0.1306
vn 0.9887 -0.0694 -0.1327
vn 0.9863 -0.1645 -0.0095
vn 0.1220 -0.4808 -0.8683
vn -0.9862 0.0379 0.1613
vn -0.9993 0.0152 0.0329
vn -0.9991 0.0417 0.0000
vn -0.0111 0.9999 -0.0005
vn -0.2464 -0.1674 0.9546
vn -0.9973 -0.0385 -0.0623
vn -0.9975 0.0613 -0.0342
vn -0.0573 0.9983 -0.0111
vn -0.0608 0.9980 -0.0153
vn 0.0518 0.9022 0.4281
vn -0.4268 -0.3846 0.8185
vn 0.0072 -0.9998 0.0179
vn 0.0061 -0.8360 0.5486
vn 0.0030 -0.4158 0.9095
vn -0.0019 0.2614 0.9652
vn -0.0055 0.7574 0.6529
vn -0.1355 -0.8304 0.5404
vn -0.5187 -0.5676 0.6394
vn -0.9980 -0.0595 0.0214
vn -0.9613 -0.2040 0.1849
vn -0.8370 -0.5406 0.0845
vn -0.1375 0.3431 0.9292
vn -0.2749 0.1586 0.9483
vn -0.1974 0.0414 0.9794
vn -0.3080 0.3705 0.8762
vn -0.8268 0.5542 0.0962
vn -0.5902 -0.0830 -0.8030
vn -0.8166 -0.3709 -0.4422
vn -0.6419 -0.2551 -0.7231
vn -0.7744 0.0279 -0.6321
vn -0.6613 0.3252 0.6760
vn -0.8075 0.1794 0.5620
vn -0.6494 0.5619 0.5123
vn -0.8344 0.3833 0.3960
vn -0.8998 0.2463 0.3601
vn -0.5413 -0.6248 -0.5627
vn -0.8282 -0.3558 -0.4330
vn -0.2354 0.8522 -0.4673
vn -0.6694 -0.1920 -0.7177
vn -0.8815 0.1025 -0.4609
vn -0.5746 0.3304 -0.7488
vn -0.1424 0.2332 -0.9619
vn 0.6692 0.0717 -0.7396
vn -0.3066 0.1256 -0.9435
vn -0.2553 -0.5632 -0.7859
vn -0.2931 -0.5444 -0.7860
vn -0.6274 -0.2717 -0.7297
vn -0.2568 0.6801 -0.6866
vn -0.8026 -0.1256 -0.5831
vn -0.3995 0.6749 -0.6203
vn -0.7947 0.1876 -0.5773
vn -0.5579 0.3171 -0.7670
vn -0.3400 -0.0609 -0.9384
vn -0.1675 -0.0934 -0.9814
vn 0.0063 -0.0516 0.9987
vn -0.0085 0.0840 -0.9964
vn 0.0029 -0.0937 0.9956
vn 0.0433 -0.9991 -0.0044
vn 0.0133 -0.9272 -0.3743
vn -0.0737 0.1005 0.9922
vn -0.1601 0.5201 -0.8390
vn -0.2975 0.9547 0.0000
vn -0.0149 -0.9998 0.0128
vn 0.0036 0.1016 -0.9948
vn -0.2151 0.1172 -0.9695
vn -0.2321 -0.9719 0.0388
vn -0.2002 -0.0577 0.9781
usemtl Material
s off
f 113//1 5//1 2//1 111//1
f 120//2 7//2 3//2 115//2
f 115//3 3//3 4//3 114//3
f 114//4 4//4 5//4 113//4
f 144//5 109//5 36//5 28//5
f 37//6 28//6 1//6 8//6
f 10//7 6//7 3//7 7//7
f 4//8 3//8 6//8 11//8
f 5//9 4//9 11//9 12//9
f 2//10 5//10 12//10 13//10
f 36//11 109//11 30//11 29//11
f 160//12 37//12 7//12 120//12
f 31//13 30//13 109//13 156//13
f 32//14 31//14 156//14 157//14
f 33//15 32//15 157//15 158//15
f 34//16 33//16 158//16 159//16
f 35//17 34//17 159//17 153//17
f 28//18 36//18 29//18 1//18
f 144//19 28//19 37//19 160//19
f 35//20 162//20 163//20 40//20
f 17//21 16//21 19//21 18//21
f 20//22 21//22 26//22 27//22
f 21//23 22//23 25//23 26//23
f 19//24 20//24 27//24 18//24
f 23//25 24//25 25//25 22//25
f 18//26 133//26 171//26 17//26
f 14//27 15//27 38//27 13//27
f 15//28 16//28 17//28 38//28
f 39//29 2//29 13//29 38//29
f 40//30 163//30 175//30 165//30
f 33//31 34//31 35//31 40//31
f 41//32 32//32 33//32 40//32
f 42//33 31//33 32//33 41//33
f 29//34 30//34 31//34 42//34
f 8//35 1//35 29//35 42//35
f 170//36 8//36 42//36 169//36
f 169//37 42//37 41//37 168//37
f 168//38 41//38 40//38 167//38
f 166//39 167//39 40//39 165//39
f 37//40 8//40 170//40 178//40
f 10//41 7//41 179//41 43//41
f 178//42 179//42 9//42 37//42
f 171//43 39//43 38//43 17//43
f 143//44 39//44 171//44
f 111//45 2//45 39//45 143//45
f 19//46 22//46 21//46 20//46
f 23//47 45//47 46//47 24//47
f 23//48 22//48 19//48 45//48
f 25//49 18//49 27//49 26//49
f 25//50 24//50 46//50 18//50
f 18//51 46//51 133//51
f 15//52 45//52 19//52 16//52
f 47//53 45//53 15//53 14//53
f 47//54 49//54 48//54 14//54
f 49//55 48//55 50//55 51//55
f 50//56 48//56 13//56 52//56
f 184//57 52//57 53//57 183//57
f 12//58 53//58 52//58 13//58
f 51//59 50//59 54//59 55//59
f 54//54 57//54 56//54 50//54
f 57//54 60//54 59//54 56//54
f 60//60 59//60 52//60 203//60
f 61//61 60//61 203//61 198//61
f 61//62 198//62 207//62 54//62
f 55//63 54//63 207//63 209//63
f 51//64 58//64 64//64 63//64
f 58//65 65//65 66//65 64//65
f 65//66 67//66 68//66 66//66
f 67//67 69//67 70//67 68//67
f 69//68 71//68 72//68 70//68
f 58//69 51//69 67//69 65//69
f 67//69 51//69 71//69 69//69
f 209//70 72//70 71//70 55//70
f 66//71 68//71 70//71 72//71
f 63//71 64//71 66//71 72//71
f 72//72 209//72 63//72
f 11//73 73//73 53//73 12//73
f 6//74 74//74 73//74 11//74
f 6//75 10//75 43//75 74//75
f 179//76 180//76 74//76 44//76
f 181//77 182//77 73//77 74//77
f 182//78 183//78 53//78 73//78
f 180//79 181//79 74//79
f 35//80 75//80 228//80 162//80
f 35//81 153//81 161//81 75//81
f 75//82 161//82 77//82 76//82
f 222//83 78//83 77//83 161//83
f 223//84 79//84 78//84 222//84
f 224//85 225//85 79//85 223//85
f 225//86 226//86 78//86 79//86
f 226//87 227//87 77//87 78//87
f 227//88 228//88 76//88 77//88
f 75//89 76//89 228//89
f 81//90 84//90 86//90
f 81//91 86//91 85//91
f 82//92 88//92 89//92
f 85//93 89//93 83//93
f 85//94 86//94 89//94
f 86//95 82//95 89//95
f 87//96 88//96 82//96
f 87//97 88//97 80//97
f 86//98 87//98 82//98
f 86//99 84//99 87//99
f 84//100 80//100 87//100
f 90//101 92//101 94//101
f 91//102 249//102 159//102
f 90//103 94//103 93//103
f 91//104 159//104 95//104
f 93//105 94//105 95//105
f 94//95 91//95 95//95
f 94//106 249//106 91//106
f 94//107 92//107 249//107
f 249//108 92//108 158//108
f 97//109 98//109 107//109 108//109
f 100//110 97//110 108//110 105//110
f 102//110 103//110 10//110 44//110
f 104//111 103//111 100//111 99//111
f 102//112 101//112 98//112 97//112
f 101//113 104//113 99//113 98//113
f 74//114 6//114 104//114 101//114
f 44//115 74//115 101//115 102//115
f 6//116 10//116 103//116 104//116
f 97//110 100//110 103//110 102//110
f 105//117 108//117 96//117
f 98//118 99//118 106//118 107//118
f 99//119 100//119 105//119 106//119
f 106//120 105//120 96//120
f 107//121 106//121 96//121
f 108//122 107//122 96//122
f 113//123 111//123 112//123 118//123
f 120//124 115//124 116//124 121//124
f 115//125 114//125 117//125 116//125
f 114//126 113//126 118//126 117//126
f 144//127 145//127 154//127 109//127
f 155//128 122//128 110//128 145//128
f 124//129 121//129 116//129 119//129
f 117//130 125//130 119//130 116//130
f 118//131 126//131 125//131 117//131
f 112//132 127//132 126//132 118//132
f 154//133 146//133 147//133 109//133
f 160//134 120//134 121//134 155//134
f 148//135 156//135 109//135 147//135
f 149//136 157//136 156//136 148//136
f 150//137 158//137 157//137 149//137
f 151//138 159//138 158//138 150//138
f 152//139 153//139 159//139 151//139
f 145//140 110//140 146//140 154//140
f 144//141 160//141 155//141 145//141
f 152//142 174//142 163//142 162//142
f 131//143 132//143 134//143 130//143
f 135//144 142//144 141//144 136//144
f 136//145 141//145 140//145 137//145
f 134//146 132//146 142//146 135//146
f 138//147 137//147 140//147 139//147
f 132//148 131//148 171//148 133//148
f 128//149 127//149 172//149 129//149
f 129//150 172//150 131//150 130//150
f 173//151 172//151 127//151 112//151
f 174//152 165//152 175//152 163//152
f 150//153 174//153 152//153 151//153
f 176//154 174//154 150//154 149//154
f 177//155 176//155 149//155 148//155
f 146//156 177//156 148//156 147//156
f 122//157 177//157 146//157 110//157
f 170//158 169//158 177//158 122//158
f 169//159 168//159 176//159 177//159
f 168//160 167//160 174//160 176//160
f 166//161 165//161 174//161 167//161
f 155//162 178//162 170//162 122//162
f 124//163 185//163 179//163 121//163
f 178//164 155//164 123//164 179//164
f 171//165 131//165 172//165 173//165
f 143//44 171//44 173//44
f 111//166 143//166 173//166 112//166
f 134//167 135//167 136//167 137//167
f 138//168 139//168 188//168 187//168
f 138//169 187//169 134//169 137//169
f 140//170 141//170 142//170 132//170
f 140//171 132//171 188//171 139//171
f 132//172 133//172 188//172
f 129//173 130//173 134//173 187//173
f 189//174 128//174 129//174 187//174
f 189//54 128//54 190//54 191//54
f 191//175 193//175 192//175 190//175
f 192//176 194//176 127//176 190//176
f 184//177 183//177 195//177 194//177
f 126//178 127//178 194//178 195//178
f 193//179 197//179 196//179 192//179
f 184//54 198//54 199//54
f 196//54 192//54 200//54 201//54
f 201//54 200//54 204//54 205//54
f 205//180 203//180 194//180 204//180
f 206//181 198//181 203//181 205//181
f 206//182 196//182 207//182 198//182
f 197//183 209//183 207//183 196//183
f 193//184 210//184 211//184 202//184
f 202//185 211//185 213//185 212//185
f 212//186 213//186 215//186 214//186
f 214//187 215//187 217//187 216//187
f 216//188 217//188 219//188 218//188
f 202//71 212//71 214//71 193//71
f 214//71 216//71 218//71 193//71
f 209//189 197//189 218//189 219//189
f 213//69 219//69 217//69 215//69
f 210//69 219//69 213//69 211//69
f 219//190 210//190 209//190
f 125//191 126//191 195//191 220//191
f 119//192 125//192 220//192 221//192
f 119//193 221//193 185//193 124//193
f 179//194 186//194 221//194 180//194
f 181//195 221//195 220//195 182//195
f 182//196 220//196 195//196 183//196
f 180//197 221//197 181//197
f 152//198 162//198 228//198 229//198
f 152//199 229//199 161//199 153//199
f 229//200 230//200 231//200 161//200
f 222//201 161//201 231//201 232//201
f 223//202 222//202 232//202 233//202
f 224//203 223//203 233//203 225//203
f 225//204 233//204 232//204 226//204
f 226//205 232//205 231//205 227//205
f 227//206 231//206 230//206 228//206
f 229//207 228//207 230//207
f 235//208 240//208 238//208
f 235//209 239//209 240//209
f 236//210 243//210 242//210
f 239//211 237//211 243//211
f 239//212 243//212 240//212
f 240//213 243//213 236//213
f 241//214 236//214 242//214
f 241//215 242//215 234//215
f 240//216 236//216 241//216
f 240//217 241//217 238//217
f 238//218 241//218 234//218
f 244//219 248//219 246//219
f 245//220 159//220 249//220
f 244//221 247//221 248//221
f 245//222 250//222 159//222
f 247//223 250//223 248//223
f 248//213 250//213 245//213
f 248//224 245//224 249//224
f 248//225 249//225 246//225
f 249//226 158//226 246//226
f 252//227 263//227 262//227 253//227
f 255//110 260//110 263//110 252//110
f 257//110 186//110 124//110 258//110
f 259//228 254//228 255//228 258//228
f 257//229 252//229 253//229 256//229
f 256//230 253//230 254//230 259//230
f 221//231 256//231 259//231 119//231
f 186//232 257//232 256//232 221//232
f 119//233 259//233 258//233 124//233
f 252//110 257//110 258//110 255//110
f 260//234 251//234 263//234
f 253//235 262//235 261//235 254//235
f 254//236 261//236 260//236 255//236
f 261//237 251//237 260//237
f 262//238 251//238 261//238
f 263//239 251//239 262//239
l 7 9
l 163 164
l 164 165
l 164 175
l 43 44
l 199 203
l 20 62
l 121 123
l 185 186
l 135 208
